<svg xmlns="http://www.w3.org/2000/svg" viewBox="0 0 564 221" width="564" height="221">
	<style>
		tspan { white-space:pre }
		.shp0 { fill: #000000 }
	</style>
	<g id="logo-group">
		<g id="title">
			<path id="path130137" class="shp0" d="M114.23 145.08C112.25 143.11 109.69 142.12 106.93 142.12L41.45 142.12C39.67 142.12 38.29 141.73 37.11 140.54C35.93 139.36 35.53 137.98 35.53 136.2L35.53 18.85C35.53 16.09 34.55 13.53 32.57 11.56C30.6 9.58 28.04 8.6 25.28 8.6C22.52 8.6 20.15 9.58 18.18 11.56C16.2 13.53 15.22 16.09 15.22 18.85L15.22 152.38C15.22 155.33 16.01 157.9 17.98 159.67C19.95 161.65 22.32 162.63 25.28 162.63L106.93 162.63C109.69 162.63 112.25 161.65 114.23 159.67C116.2 157.7 117.18 155.33 117.18 152.38C117.18 149.61 116.2 147.05 114.23 145.08Z" />
			<path id="path130139" fill-rule="evenodd" class="shp0" d="M249.73 80.39C254.46 88.67 256.83 98.14 256.83 108.79C256.83 119.44 254.46 128.71 249.92 136.99C245.19 145.28 238.88 151.78 230.59 156.52C222.31 161.25 213.04 163.42 202.59 163.42C191.94 163.42 182.67 161.25 174.38 156.52C166.1 151.78 159.59 145.28 155.06 136.99C150.32 128.71 148.15 119.44 148.15 108.79C148.15 98.14 150.32 88.67 155.06 80.39C159.59 72.1 166.1 65.79 174.38 61.06C182.67 56.33 191.94 53.96 202.59 53.96C212.84 53.96 222.11 56.33 230.4 61.06C238.68 65.79 244.99 72.1 249.73 80.39ZM172.02 89.66C168.86 95.38 167.48 101.69 167.48 108.79C167.48 115.89 168.86 122.4 172.02 127.92C174.98 133.44 179.12 137.78 184.44 140.94C189.77 144.09 195.88 145.67 202.59 145.67C209.29 145.67 215.21 144.09 220.54 140.94C225.86 137.78 230 133.44 232.96 127.92C235.92 122.4 237.5 115.89 237.5 108.79C237.5 101.69 235.92 95.38 232.96 89.66C230 84.14 225.86 79.6 220.54 76.44C215.21 73.29 209.29 71.71 202.59 71.71C195.88 71.71 189.77 73.29 184.44 76.44C179.12 79.6 174.98 84.14 172.02 89.66Z" />
			<path id="path130141" fill-rule="evenodd" class="shp0" d="M377.38 61.06C385.66 65.79 391.97 72.1 396.7 80.39C401.44 88.67 403.8 98.14 403.8 108.79L403.8 151.39C403.8 161.84 401.44 171.31 396.9 179.79C392.17 188.47 385.66 195.17 377.38 200.1C369.09 205.04 359.62 207.4 349.17 207.4C339.7 207.4 330.83 205.63 322.74 201.88C314.46 198.13 307.75 192.81 302.23 185.71C300.65 183.93 300.06 182.16 300.06 180.18C300.06 177.42 301.44 175.06 304.2 173.08C305.98 171.9 307.75 171.31 309.73 171.31C312.88 171.31 315.64 172.69 317.81 175.45C321.36 180.18 325.7 183.74 331.22 186.1C336.55 188.47 342.66 189.65 349.57 189.65C355.88 189.65 361.79 188.27 367.12 185.12C372.25 181.96 376.59 177.42 379.74 171.51C382.9 165.59 384.48 158.29 384.48 150.01L384.48 140.35C380.33 147.64 375.01 153.36 368.3 157.31C361.6 161.45 353.91 163.42 345.62 163.42C335.76 163.42 327.08 161.25 319.39 156.52C311.7 151.78 305.78 145.28 301.44 136.99C297.1 128.71 295.13 119.44 295.13 108.79C295.13 98.14 297.3 88.67 302.03 80.39C306.57 72.1 313.08 65.79 321.36 61.06C329.65 56.33 338.92 53.96 349.57 53.96C359.82 53.96 369.09 56.33 377.38 61.06ZM379.94 127.92C382.9 122.4 384.48 115.89 384.48 108.79C384.48 101.69 382.9 95.38 379.94 89.66C376.98 84.14 372.84 79.6 367.51 76.44C362.19 73.29 356.27 71.71 349.57 71.71C342.86 71.71 336.75 73.29 331.42 76.44C326.1 79.6 321.95 84.14 319 89.66C315.84 95.38 314.46 101.69 314.46 108.79C314.46 115.89 315.84 122.4 319 127.92C321.95 133.44 326.1 137.78 331.42 140.94C336.75 144.09 342.86 145.67 349.57 145.67C356.27 145.67 362.19 144.09 367.51 140.94C372.84 137.78 376.98 133.44 379.94 127.92Z" />
			<path id="path130143" fill-rule="evenodd" class="shp0" d="M543.68 80.39C548.42 88.67 550.78 98.14 550.78 108.79C550.78 119.44 548.42 128.71 543.88 136.99C539.15 145.28 532.83 151.78 524.55 156.52C516.27 161.25 507 163.42 496.54 163.42C485.89 163.42 476.62 161.25 468.34 156.52C460.06 151.78 453.55 145.28 449.01 136.99C444.28 128.71 442.11 119.44 442.11 108.79C442.11 98.14 444.28 88.67 449.01 80.39C453.55 72.1 460.06 65.79 468.34 61.06C476.62 56.33 485.89 53.96 496.54 53.96C506.8 53.96 516.07 56.33 524.35 61.06C532.64 65.79 538.95 72.1 543.68 80.39ZM465.97 89.66C462.82 95.38 461.44 101.69 461.44 108.79C461.44 115.89 462.82 122.4 465.97 127.92C468.93 133.44 473.07 137.78 478.4 140.94C483.72 144.09 489.84 145.67 496.54 145.67C503.25 145.67 509.17 144.09 514.49 140.94C519.82 137.78 523.96 133.44 526.92 127.92C529.88 122.4 531.45 115.89 531.45 108.79C531.45 101.69 529.88 95.38 526.92 89.66C523.96 84.14 519.82 79.6 514.49 76.44C509.17 73.29 503.25 71.71 496.54 71.71C489.84 71.71 483.72 73.29 478.4 76.44C473.07 79.6 468.93 84.14 465.97 89.66Z" />
		</g>
		<g id="tagline">
		</g>
	</g>
</svg>
