<svg xmlns="http://www.w3.org/2000/svg" viewBox="0 0 589 153" width="589" height="153">
	<style>
		tspan { white-space:pre }
		.shp0 { fill: #ffffff } 
	</style>
	<g id="logo-group">
		<g id="title">
			<path id="path166636" class="shp0" d="M91.42 128.5L83.17 105.17C80.19 107.27 76.86 108.15 73 108.15C69.84 108.15 67.39 107.27 65.63 105.34C63.88 103.41 63 100.78 63 97.28L63 65.7L84.75 65.7L84.75 40.8L63 40.8L63 16.07L29.68 16.07L29.68 40.8L15.82 40.8L15.82 65.7L29.68 65.7L29.68 97.63C29.68 109.73 33.01 118.85 39.67 124.81C46.34 130.95 55.81 133.93 68.26 133.93C72.83 133.93 77.03 133.58 81.07 132.53C85.1 131.65 88.61 130.25 91.42 128.5Z" />
			<path id="path166638" fill-rule="evenodd" class="shp0" d="M129.07 93.24C130.47 98.15 133.1 102.01 137.13 104.64C141.17 107.27 146.25 108.5 152.39 108.5C156.95 108.5 160.81 107.98 164.15 106.57C167.48 105.34 170.81 103.24 174.32 100.26L191.86 118.5C182.56 128.85 169.06 133.93 151.34 133.93C140.12 133.93 130.47 131.83 122.05 127.62C113.63 123.41 106.96 117.62 102.4 110.08C97.84 102.71 95.56 94.12 95.56 84.65C95.56 75.35 97.67 66.93 102.23 59.56C106.79 52.2 112.93 46.23 121 42.02C128.89 37.82 137.84 35.71 147.83 35.71C157.3 35.71 165.9 37.82 173.62 41.67C181.33 45.53 187.3 51.32 191.86 58.69C196.42 66.05 198.7 74.82 198.7 85C198.7 85.35 198.52 87.98 198.17 93.24L129.07 93.24ZM135.03 63.77C131.52 66.76 129.42 70.79 128.54 75.7L167.48 75.7C166.43 70.79 164.32 66.76 160.81 63.77C157.3 60.97 153.1 59.39 148.01 59.39C142.75 59.39 138.54 60.97 135.03 63.77Z" />
			<path id="path166640" class="shp0" d="M271.83 132.36L309.89 132.36L273.59 83.59L308.67 37.29L273.41 37.29L255.87 61.32L239.03 37.29L201.5 37.29L236.58 84.82L200.44 132.36L236.58 132.36L254.82 107.45L271.83 132.36Z" />
			<path id="path166642" class="shp0" d="M385.69 128.5L377.45 105.17C374.47 107.27 371.13 108.15 367.27 108.15C364.12 108.15 361.66 107.27 359.91 105.34C358.15 103.41 357.28 100.78 357.28 97.28L357.28 65.7L379.03 65.7L379.03 40.8L357.28 40.8L357.28 16.07L323.95 16.07L323.95 40.8L310.09 40.8L310.09 65.7L323.95 65.7L323.95 97.63C323.95 109.73 327.28 118.85 333.95 124.81C340.61 130.95 350.09 133.93 362.54 133.93C367.1 133.93 371.31 133.58 375.34 132.53C379.38 131.65 382.89 130.25 385.69 128.5Z" />
			<path id="path166644" fill-rule="evenodd" class="shp0" d="M423.34 93.24C424.74 98.15 427.37 102.01 431.41 104.64C435.44 107.27 440.53 108.5 446.67 108.5C451.23 108.5 455.09 107.98 458.42 106.57C461.75 105.34 465.08 103.24 468.59 100.26L486.13 118.5C476.84 128.85 463.33 133.93 445.62 133.93C434.39 133.93 424.74 131.83 416.32 127.62C407.9 123.41 401.24 117.62 396.68 110.08C392.12 102.71 389.84 94.12 389.84 84.65C389.84 75.35 391.94 66.93 396.5 59.56C401.06 52.2 407.2 46.23 415.27 42.02C423.16 37.82 432.11 35.71 442.11 35.71C451.58 35.71 460.17 37.82 467.89 41.67C475.61 45.53 481.57 51.32 486.13 58.69C490.69 66.05 492.97 74.82 492.97 85C492.97 85.35 492.8 87.98 492.45 93.24L423.34 93.24ZM429.3 63.77C425.8 66.76 423.69 70.79 422.81 75.7L461.75 75.7C460.7 70.79 458.59 66.76 455.09 63.77C451.58 60.97 447.37 59.39 442.28 59.39C437.02 59.39 432.81 60.97 429.3 63.77Z" />
			<path id="path166646" class="shp0" d="M553.41 39.04C547.97 41.15 543.59 44.48 540.26 48.69L540.26 37.29L508.51 37.29L508.51 132.36L541.84 132.36L541.84 88.68C541.84 80.79 543.77 74.82 547.8 70.97C551.83 67.11 557.45 65.18 564.64 65.18C566.57 65.18 569.02 65.35 572.18 65.7L572.18 35.71C565.16 35.71 558.85 36.94 553.41 39.04Z" />
		</g>
		<g id="tagline">
		</g>
	</g>
</svg>